<?xml version="1.0" standalone="no"?>
<!DOCTYPE svg PUBLIC "-//W3C//DTD SVG 20010904//EN"
 "http://www.w3.org/TR/2001/REC-SVG-20010904/DTD/svg10.dtd">
<svg version="1.0" xmlns="http://www.w3.org/2000/svg"
 width="507.000000pt" height="364.000000pt" viewBox="0 0 507.000000 364.000000"
 preserveAspectRatio="xMidYMid meet">

<g transform="translate(0.000000,364.000000) scale(0.100000,-0.100000)"
fill="#8b4513" stroke="currentColor">
<path d="M1095 3426 c-73 -75 -71 -141 5 -210 28 -25 54 -37 97 -46 125 -25
137 -33 316 -209 167 -165 168 -166 162 -203 -7 -42 3 -66 51 -121 22 -23 34
-47 34 -65 0 -27 47 -113 69 -126 7 -5 11 -44 11 -102 0 -87 -1 -94 -20 -94
-17 0 -20 7 -20 39 0 22 -6 44 -15 51 -21 18 -98 24 -124 11 -20 -11 -21 -17
-21 -214 0 -145 3 -206 12 -215 16 -16 123 -16 136 1 6 6 12 28 14 47 2 29 8
36 28 38 14 2 29 8 34 13 6 5 26 9 46 9 20 0 40 4 46 10 5 5 31 13 56 16 l46
6 8 -47 c4 -28 3 -55 -3 -64 -29 -48 -307 -172 -478 -215 -148 -37 -157 -36
-190 2 -15 18 -37 38 -49 44 -12 7 -93 15 -186 19 -91 4 -182 13 -204 19 -21
6 -57 31 -81 54 -53 54 -74 126 -56 193 12 45 76 143 167 258 143 180 283 438
287 529 1 36 -4 44 -72 108 -90 84 -238 184 -353 238 -110 51 -320 109 -423
117 -94 7 -115 -5 -115 -62 0 -47 41 -91 149 -160 57 -35 99 -70 117 -97 26
-38 29 -49 29 -127 0 -99 -3 -106 -121 -261 -145 -192 -206 -302 -264 -480
-53 -159 -64 -250 -57 -445 6 -155 20 -238 47 -270 11 -13 181 -15 1264 -15
l1251 0 24 -45 c27 -52 72 -95 134 -127 38 -21 55 -23 182 -22 232 1 296 27
354 147 l23 47 359 0 359 0 0 52 c0 75 -36 133 -103 164 -29 13 -60 24 -69 24
-39 0 -48 11 -48 61 0 36 -7 60 -30 95 -59 94 -49 163 44 289 124 171 109 355
-39 468 -169 128 -430 77 -522 -102 -28 -54 -33 -73 -33 -135 0 -93 10 -121
81 -228 31 -48 63 -104 69 -124 16 -47 6 -117 -21 -155 l-21 -30 -66 37 c-143
80 -204 124 -197 142 54 132 69 254 38 311 -25 47 -53 66 -161 106 -106 40
-160 44 -208 14 -43 -26 -87 -116 -94 -189 l-5 -54 -175 194 c-96 107 -285
321 -420 475 -277 317 -350 394 -400 420 -50 26 -152 25 -206 -3 -70 -36 -64
-62 14 -62 82 0 196 -95 228 -192 13 -40 14 -57 4 -105 l-12 -57 -323 324
c-177 178 -327 326 -334 328 -7 2 -32 -16 -56 -42z m713 -655 c549 -555 648
-660 630 -664 -17 -5 -124 98 -628 606 -333 337 -623 631 -644 654 -33 37 -40
63 -17 63 4 0 301 -296 659 -659z m-599 500 l75 -83 -49 7 c-102 15 -155 61
-155 136 0 70 19 61 129 -60z m-678 -11 c192 -41 336 -101 485 -200 84 -57
209 -163 218 -185 8 -21 -18 -93 -69 -196 -63 -125 -96 -176 -231 -354 -62
-83 -123 -173 -135 -200 -31 -71 -29 -155 4 -220 31 -62 48 -77 117 -109 49
-22 76 -26 233 -33 174 -9 178 -9 204 -35 20 -21 23 -28 12 -32 -37 -12 -317
-36 -529 -46 -129 -5 -256 -12 -282 -14 -56 -6 -119 -36 -146 -71 -19 -23 -26
-25 -106 -25 -60 0 -88 4 -91 13 -14 35 -22 212 -14 302 23 247 116 468 296
705 101 133 144 215 150 289 11 122 -33 193 -177 286 -99 64 -120 86 -120 124
0 18 6 21 43 21 24 0 86 -9 138 -20z m1262 -78 c23 -16 75 -68 116 -116 l73
-87 -53 -49 c-30 -27 -57 -49 -61 -50 -5 0 -8 22 -8 48 0 99 -108 238 -204
264 -63 17 -45 31 31 25 51 -4 74 -11 106 -35z m318 -349 c58 -65 192 -217
299 -338 106 -121 225 -253 263 -293 38 -40 68 -74 66 -76 -2 -2 -43 -2 -90 1
l-87 6 -128 151 c-71 83 -221 245 -334 360 l-205 208 54 49 c30 27 55 49 56
49 1 0 49 -53 106 -117z m-51 -204 c0 -18 -133 67 -174 111 -41 44 -45 52 -35
71 10 20 16 16 110 -77 54 -54 99 -102 99 -105z m-11 -206 c177 -180 321 -330
321 -335 0 -4 -7 -8 -16 -8 -8 0 -68 -25 -131 -55 -64 -30 -118 -55 -119 -55
-2 0 -4 30 -4 68 0 85 -24 187 -54 233 -13 19 -64 76 -114 125 -99 100 -132
145 -132 186 0 17 -16 45 -45 79 -41 49 -58 89 -36 89 5 0 153 -147 330 -327z
m41 154 c19 -8 79 -59 132 -113 130 -133 304 -337 291 -341 -11 -4 -485 469
-492 490 -2 7 5 5 15 -5 10 -9 35 -23 54 -31z m1743 -19 c104 -45 177 -171
163 -281 -8 -58 -28 -100 -96 -200 -58 -86 -75 -146 -59 -214 5 -27 17 -58 25
-70 7 -12 14 -27 14 -33 0 -12 -328 -14 -347 -2 -9 5 -6 23 10 69 31 88 17
147 -62 267 -74 113 -81 131 -81 216 0 55 5 78 28 121 71 137 251 193 405 127z
m-1903 -350 l0 -138 -25 0 -25 0 0 162 0 161 25 -23 c24 -23 25 -27 25 -162z
m989 148 c-32 -22 -69 -65 -69 -81 0 -3 14 10 31 30 36 41 80 67 96 57 6 -4
14 -18 18 -32 5 -21 1 -27 -24 -38 -17 -7 -39 -28 -51 -46 -27 -45 -26 -57 3
-15 25 37 71 68 84 56 4 -5 -8 -20 -26 -34 -37 -29 -70 -93 -71 -137 0 -30 -9
-31 -76 -6 -26 10 -26 11 -19 78 4 37 14 84 22 104 18 45 65 88 96 88 18 0 16
-4 -14 -24z m130 1 c6 -8 17 -40 25 -73 8 -32 15 -50 15 -39 1 11 -4 37 -10
58 -12 46 -6 57 19 34 10 -10 26 -17 34 -17 9 0 21 -7 28 -15 7 -8 16 -13 20
-10 4 2 16 -5 26 -16 16 -17 19 -36 18 -108 0 -133 -33 -201 -186 -391 -38
-47 -86 -118 -106 -159 -32 -64 -36 -83 -36 -145 0 -96 18 -141 76 -198 l49
-48 -31 0 c-17 0 -43 6 -59 14 -34 18 -106 96 -116 125 -4 13 -9 20 -12 18 -7
-8 25 -64 60 -104 40 -45 7 -30 -40 19 -44 46 -80 123 -88 188 -13 108 27 215
142 387 157 233 191 350 138 476 -9 21 17 24 34 4z m-1291 -54 c2 -9 -10 -13
-42 -13 -43 0 -55 7 -39 24 12 11 76 2 81 -11z m250 -48 c28 -44 28 -45 -8
-45 -28 0 -30 2 -30 40 0 22 3 40 8 40 4 0 17 -16 30 -35z m-248 -6 c0 -16 -8
-19 -45 -19 -32 0 -45 4 -45 14 0 17 11 22 56 23 27 0 34 -3 34 -18z m1246
-51 c-9 -52 -41 -128 -55 -128 -14 0 -14 61 0 97 10 26 46 73 57 73 3 0 2 -19
-2 -42z m-1246 -9 c0 -18 -5 -20 -42 -17 -31 2 -44 8 -46 21 -3 14 4 17 42 17
40 0 46 -3 46 -21z m80 -64 c0 -78 -2 -85 -20 -85 -18 0 -20 7 -20 85 0 78 2
85 20 85 18 0 20 -7 20 -85z m203 38 c3 -5 8 -23 12 -40 l7 -33 -46 0 -46 0 0
40 c0 39 1 40 34 40 19 0 37 -3 39 -7z m-283 -34 c0 -18 -5 -20 -42 -17 -31 2
-44 8 -46 21 -3 14 4 17 42 17 40 0 46 -3 46 -21z m0 -54 c0 -11 -11 -15 -39
-15 -38 0 -57 10 -44 24 3 3 24 6 45 6 27 0 38 -4 38 -15z m1098 -14 c41 -11
76 -22 79 -25 12 -11 -28 -57 -45 -52 -151 47 -320 51 -457 11 -98 -28 -206
-76 -297 -131 -93 -57 -61 -50 54 11 176 92 297 126 453 126 81 0 237 -22 253
-36 2 -1 -22 -38 -53 -80 -78 -110 -122 -206 -136 -298 l-11 -77 -1106 0
c-734 0 -1103 -3 -1096 -10 6 -6 396 -11 1109 -12 l1100 -3 0 -23 0 -23 -1125
0 c-619 1 -1135 1 -1147 1 -17 0 -23 6 -23 23 0 34 55 106 93 122 19 8 95 16
182 20 231 10 547 34 678 51 241 31 469 105 657 215 298 174 445 222 650 214
69 -2 145 -12 188 -24z m-1098 -41 c0 -17 -7 -20 -45 -20 -32 0 -45 4 -45 14
0 18 15 24 58 25 26 1 32 -3 32 -19z m0 -56 c0 -12 -9 -14 -42 -12 -59 4 -63
28 -4 28 35 0 46 -4 46 -16z m1493 -102 c179 -121 362 -194 587 -233 179 -31
196 -36 235 -70 28 -25 55 -78 55 -110 0 -15 -155 -20 -411 -13 l-276 7 0 23
0 24 298 0 c193 0 299 4 299 10 0 6 -106 10 -298 10 l-299 0 -12 38 c-12 41
-31 66 -75 100 -32 25 -99 28 -234 13 -87 -10 -126 -40 -145 -108 -8 -30 -16
-43 -29 -43 -46 0 8 124 109 249 61 77 84 94 98 71 3 -5 12 -10 18 -10 7 0 1
9 -12 19 -23 17 -23 19 -6 44 9 15 19 27 22 27 2 0 36 -22 76 -48z m518 -132
l129 0 0 -35 c0 -41 0 -41 -102 -20 -113 24 -188 47 -188 57 0 6 7 7 16 4 9
-3 74 -6 145 -6z m-552 -122 c32 -32 35 -22 3 15 -14 16 -12 17 22 17 30 0 45
-7 69 -32 30 -32 29 -21 -1 15 -24 27 9 22 41 -7 69 -64 82 -173 31 -266 -15
-28 -39 -59 -53 -69 -32 -22 -90 -43 -102 -35 -5 3 -18 0 -29 -6 -21 -11 -29
3 -9 15 15 10 69 86 69 98 0 6 -13 -10 -29 -34 -27 -44 -84 -89 -111 -89 -7 0
7 18 30 41 102 99 114 252 27 347 -33 35 2 27 42 -10z m-163 -13 c-10 -15 -15
-32 -12 -38 3 -8 5 -6 5 3 1 8 11 28 24 44 18 22 28 27 45 22 19 -6 20 -10 10
-29 -10 -20 -10 -21 7 -7 15 13 19 12 36 -9 28 -34 24 -39 -26 -39 -58 1 -78
-16 -47 -38 40 -28 22 -74 -29 -74 -53 0 -87 77 -58 133 15 29 51 68 57 62 3
-2 -3 -16 -12 -30z m147 -92 c9 -5 9 -45 -1 -59 -4 -6 -22 -15 -41 -19 -29 -6
-33 -5 -28 10 4 9 7 32 7 51 0 32 2 34 28 28 15 -4 30 -9 35 -11z m-2833 -27
c0 -40 -10 -45 -76 -40 -51 4 -74 21 -74 56 0 16 9 18 75 18 l75 0 0 -34z
m2617 -16 c11 -29 10 -30 -16 -30 -31 0 -51 16 -51 42 0 13 8 18 28 18 22 0
30 -7 39 -30z m203 -78 c0 -24 -42 -81 -77 -104 -53 -34 -96 -21 -143 44 -54
74 -49 78 95 78 114 0 125 -2 125 -18z"/>
<path d="M721 2879 c-1 -121 -37 -201 -156 -354 -209 -268 -297 -499 -294
-770 l2 -120 8 115 c24 321 92 488 329 805 87 116 122 194 128 280 2 38 -1 81
-6 95 -9 20 -11 11 -11 -51z"/>
<path d="M1097 2745 c-62 -121 -119 -209 -246 -376 -56 -74 -115 -161 -132
-194 -38 -79 -48 -170 -25 -247 16 -55 57 -118 78 -118 5 0 -1 13 -15 30 -38
45 -60 121 -55 193 5 89 47 168 177 340 121 159 184 258 238 375 51 109 35
106 -20 -3z"/>
<path d="M3627 2516 c-92 -25 -173 -122 -165 -197 4 -34 4 -34 11 -6 4 15 9
39 12 53 9 41 80 111 132 128 26 9 55 16 65 16 10 0 18 5 18 10 0 13 -13 12
-73 -4z"/>
<path d="M2950 2330 c0 -5 7 -7 15 -4 8 4 15 8 15 10 0 2 -7 4 -15 4 -8 0 -15
-4 -15 -10z"/>
<path d="M2908 2293 c-30 -36 -30 -47 0 -19 18 17 32 31 32 33 0 9 -19 1 -32
-14z"/>
<path d="M3133 2220 c0 -36 2 -50 4 -32 2 17 2 47 0 65 -2 17 -4 3 -4 -33z"/>
<path d="M3181 2254 c0 -11 3 -14 6 -6 3 7 2 16 -1 19 -3 4 -6 -2 -5 -13z"/>
<path d="M3193 2190 c0 -25 2 -35 4 -22 2 12 2 32 0 45 -2 12 -4 2 -4 -23z"/>
<path d="M3072 2190 c0 -14 2 -19 5 -12 2 6 2 18 0 25 -3 6 -5 1 -5 -13z"/>
<path d="M2782 1590 c0 -14 2 -19 5 -12 2 6 2 18 0 25 -3 6 -5 1 -5 -13z"/>
<path d="M2773 1515 c0 -22 2 -30 4 -17 2 12 2 30 0 40 -3 9 -5 -1 -4 -23z"/>
<path d="M2782 1450 c0 -14 2 -19 5 -12 2 6 2 18 0 25 -3 6 -5 1 -5 -13z"/>
<path d="M2842 1450 c0 -14 2 -19 5 -12 2 6 2 18 0 25 -3 6 -5 1 -5 -13z"/>
<path d="M2851 1404 c0 -11 3 -14 6 -6 3 7 2 16 -1 19 -3 4 -6 -2 -5 -13z"/>
<path d="M2860 1374 c0 -15 52 -85 76 -104 10 -8 7 -1 -7 15 -15 17 -36 46
-48 65 -11 19 -21 30 -21 24z"/>
<path d="M3338 1332 l-17 -37 19 24 c11 13 20 29 20 37 0 21 -3 17 -22 -24z"/>
<path d="M3255 1282 c-22 -26 -24 -32 -9 -22 20 13 49 49 42 54 -2 2 -16 -13
-33 -32z"/>
<path d="M3099 1603 c-13 -16 -12 -17 4 -4 16 13 21 21 13 21 -2 0 -10 -8 -17
-17z"/>
<path d="M3031 1524 c0 -11 3 -14 6 -6 3 7 2 16 -1 19 -3 4 -6 -2 -5 -13z"/>
<path d="M4475 1580 c-3 -5 -1 -10 4 -10 6 0 11 5 11 10 0 6 -2 10 -4 10 -3 0
-8 -4 -11 -10z"/>
<path d="M4286 1468 c5 -8 2 -9 -9 -5 -10 3 -17 2 -17 -3 0 -6 9 -10 20 -10
11 0 20 7 20 15 0 8 -5 15 -11 15 -5 0 -7 -5 -3 -12z"/>
<path d="M4493 1369 c-61 -18 -142 -123 -143 -184 0 -28 27 -64 56 -75 43 -17
102 26 74 54 -13 13 -13 43 0 51 17 11 56 -21 74 -60 20 -41 24 -131 8 -162
-15 -28 -72 -53 -119 -53 -76 0 -139 27 -198 84 -30 30 -55 61 -55 70 0 25
-26 19 -64 -14 -18 -17 -55 -39 -80 -51 -25 -11 -46 -24 -46 -29 0 -17 104
-121 146 -146 153 -90 315 -61 459 80 78 77 115 148 115 224 0 137 -115 244
-227 211z m132 -53 c57 -44 84 -119 70 -193 -6 -32 -9 -35 -15 -18 -7 17 -9
16 -9 -8 -1 -38 -32 -102 -41 -87 -4 7 -12 0 -20 -19 -21 -52 -40 -59 -23 -9
22 65 14 153 -20 204 -33 49 -62 64 -125 64 l-47 1 26 22 c14 13 24 28 22 34
-3 7 8 19 24 28 41 23 114 14 158 -19z m-173 -121 c0 -19 1 -41 2 -47 2 -20
-34 -21 -55 -2 -10 9 -19 25 -19 34 0 23 26 44 41 34 8 -4 9 -3 5 4 -4 7 -1
12 8 12 11 0 16 -11 18 -35z m-222 -193 c19 -18 59 -44 88 -58 45 -21 65 -25
121 -22 36 2 75 8 86 13 20 8 20 8 1 -13 -11 -12 -24 -22 -31 -22 -6 0 -20 -7
-31 -15 -18 -13 -18 -14 6 -9 19 4 15 -1 -15 -18 -56 -32 -188 -33 -258 -1
-45 21 -157 117 -157 134 0 16 17 9 55 -21 50 -40 66 -39 20 1 -42 37 -43 46
-7 62 15 6 33 20 41 31 14 19 15 19 30 -5 9 -13 31 -39 51 -57z"/>
<path d="M4671 1154 c0 -11 3 -14 6 -6 3 7 2 16 -1 19 -3 4 -6 -2 -5 -13z"/>
<path d="M4632 1120 c0 -14 2 -19 5 -12 2 6 2 18 0 25 -3 6 -5 1 -5 -13z"/>
<path d="M4632 1060 c0 -19 2 -27 5 -17 2 9 2 25 0 35 -3 9 -5 1 -5 -18z"/>
<path d="M3530 1310 c0 -5 5 -10 10 -10 6 0 10 5 10 10 0 6 -4 10 -10 10 -5 0
-10 -4 -10 -10z"/>
<path d="M2435 1300 c-3 -5 -1 -10 4 -10 6 0 11 5 11 10 0 6 -2 10 -4 10 -3 0
-8 -4 -11 -10z"/>
<path d="M2525 1300 c-3 -5 -1 -10 4 -10 6 0 11 5 11 10 0 6 -2 10 -4 10 -3 0
-8 -4 -11 -10z"/>
<path d="M2550 1270 c0 -5 5 -10 10 -10 6 0 10 5 10 10 0 6 -4 10 -10 10 -5 0
-10 -4 -10 -10z"/>
<path d="M3630 1270 c0 -5 5 -10 10 -10 6 0 10 5 10 10 0 6 -4 10 -10 10 -5 0
-10 -4 -10 -10z"/>
<path d="M2090 1250 c0 -5 5 -10 10 -10 6 0 10 5 10 10 0 6 -4 10 -10 10 -5 0
-10 -4 -10 -10z"/>
<path d="M2466 1251 c-4 -5 -2 -12 3 -15 5 -4 12 -2 15 3 4 5 2 12 -3 15 -5 4
-12 2 -15 -3z"/>
<path d="M4036 1241 c-4 -7 -5 -15 -2 -18 9 -9 19 4 14 18 -4 11 -6 11 -12 0z"/>
<path d="M1750 1230 c0 -5 5 -10 11 -10 5 0 7 5 4 10 -3 6 -8 10 -11 10 -2 0
-4 -4 -4 -10z"/>
<path d="M2720 1220 c0 -5 5 -10 10 -10 6 0 10 5 10 10 0 6 -4 10 -10 10 -5 0
-10 -4 -10 -10z"/>
<path d="M2230 1210 c0 -5 5 -10 10 -10 6 0 10 5 10 10 0 6 -4 10 -10 10 -5 0
-10 -4 -10 -10z"/>
<path d="M3815 1210 c-4 -6 5 -10 20 -10 15 0 24 4 20 10 -3 6 -12 10 -20 10
-8 0 -17 -4 -20 -10z"/>
<path d="M2400 1199 c0 -5 5 -7 10 -4 6 3 10 8 10 11 0 2 -4 4 -10 4 -5 0 -10
-5 -10 -11z"/>
<path d="M2525 1200 c3 -5 8 -10 11 -10 2 0 4 5 4 10 0 6 -5 10 -11 10 -5 0
-7 -4 -4 -10z"/>
<path d="M1965 1150 c3 -5 8 -10 11 -10 2 0 4 5 4 10 0 6 -5 10 -11 10 -5 0
-7 -4 -4 -10z"/>
<path d="M2310 1149 c0 -5 5 -7 10 -4 6 3 10 8 10 11 0 2 -4 4 -10 4 -5 0 -10
-5 -10 -11z"/>
<path d="M2570 1150 c0 -5 5 -10 10 -10 6 0 10 5 10 10 0 6 -4 10 -10 10 -5 0
-10 -4 -10 -10z"/>
<path d="M3725 1128 c-14 -21 -14 -24 2 -35 9 -7 21 -13 27 -13 5 0 1 6 -10
14 -14 11 -16 18 -8 26 15 15 44 1 44 -22 0 -10 5 -16 10 -13 15 9 12 23 -10
45 -26 26 -35 25 -55 -2z"/>
<path d="M3260 1130 c0 -5 5 -10 10 -10 6 0 10 5 10 10 0 6 -4 10 -10 10 -5 0
-10 -4 -10 -10z"/>
<path d="M2651 1091 c-26 -24 -31 -37 -31 -73 0 -67 29 -89 50 -38 19 46 76
57 114 20 18 -17 18 -22 5 -57 -30 -79 -136 -110 -198 -58 -16 14 -33 35 -36
45 -10 30 -25 24 -25 -10 0 -41 33 -104 67 -128 141 -98 323 -13 323 151 0
131 -180 231 -269 148z m99 -6 c17 -9 30 -17 30 -19 0 -3 3 -12 7 -21 5 -15 3
-16 -15 -6 -32 17 -56 13 -97 -15 l-37 -25 7 28 c10 40 35 64 73 72 2 1 16 -6
32 -14z m90 -31 c50 -45 66 -94 51 -151 -22 -81 -76 -123 -161 -123 -62 0
-106 18 -144 59 -33 34 -29 40 11 14 34 -22 110 -22 149 1 16 10 40 33 53 52
20 28 23 43 19 89 -3 34 -12 62 -23 75 -31 34 3 22 45 -16z"/>
<path d="M2820 858 c-12 -22 -12 -22 6 -6 10 10 15 20 12 24 -4 3 -12 -5 -18
-18z"/>
<path d="M2755 823 c-11 -3 -24 -9 -29 -14 -5 -5 5 -4 24 1 51 15 55 25 5 13z"/>
<path d="M3220 1094 c0 -8 5 -12 10 -9 6 4 8 11 5 16 -9 14 -15 11 -15 -7z"/>
<path d="M3385 1100 c-3 -5 -1 -10 4 -10 6 0 11 5 11 10 0 6 -2 10 -4 10 -3 0
-8 -4 -11 -10z"/>
<path d="M3290 1070 c0 -5 5 -10 10 -10 6 0 10 5 10 10 0 6 -4 10 -10 10 -5 0
-10 -4 -10 -10z"/>
<path d="M2161 1031 c-8 -5 -10 -14 -6 -21 5 -9 4 -11 -3 -6 -7 4 -12 3 -12
-3 0 -15 13 -19 35 -10 11 4 14 8 8 8 -7 1 -13 6 -13 12 0 6 7 8 16 5 14 -5
15 -4 4 9 -7 8 -13 15 -14 15 0 0 -7 -4 -15 -9z"/>
<path d="M3485 992 c-105 -49 -155 -184 -100 -268 51 -78 216 -104 260 -41 37
54 11 107 -58 114 -44 5 -63 -6 -37 -22 15 -9 12 -42 -6 -60 -21 -21 -41 -5
-50 41 -13 68 61 154 132 154 46 0 67 -34 67 -109 0 -112 -86 -241 -203 -305
-64 -35 -100 -36 -150 -2 -77 51 -124 157 -110 249 8 53 2 61 -32 48 -27 -10
-140 -96 -150 -114 -8 -16 24 -111 49 -146 71 -95 269 -161 445 -149 165 12
302 149 316 315 7 86 -15 139 -79 197 -112 101 -215 135 -294 98z m110 -22
c-11 -5 -32 -9 -46 -9 -15 -1 -37 -10 -50 -22 l-24 -20 26 16 c31 18 135 23
152 6 8 -8 0 -11 -30 -11 -51 0 -100 -32 -130 -85 -26 -47 -29 -88 -8 -129 19
-35 14 -42 -17 -25 -12 7 -26 12 -30 11 -4 -1 -16 10 -27 25 -43 54 -17 176
46 221 39 27 51 30 108 31 37 0 45 -3 30 -9z m185 -109 c0 -5 11 -20 24 -34
44 -48 44 -154 -1 -240 -25 -49 -104 -127 -155 -153 -57 -29 -101 -33 -48 -4
19 10 51 33 70 50 26 23 18 19 -33 -14 -79 -53 -142 -74 -170 -57 -10 7 -27 9
-38 6 -11 -4 -32 -4 -47 0 -24 7 -22 9 28 21 163 43 298 196 308 348 3 42 -1
74 -12 100 -9 21 -16 40 -16 42 0 2 20 -10 45 -27 25 -17 45 -34 45 -38z
m-152 -103 c7 -7 12 -18 12 -25 0 -23 -48 -63 -75 -63 -30 0 -32 11 -5 28 13
8 20 23 20 42 0 32 25 41 48 18z m-422 -66 c1 -47 7 -79 22 -107 21 -40 80
-103 117 -123 37 -20 -85 -14 -130 7 -51 23 -121 102 -137 153 -11 37 -10 40
18 63 16 13 43 35 59 49 17 14 35 25 40 26 6 0 10 -30 11 -68z"/>
<path d="M3570 475 c-30 -19 -59 -35 -64 -35 -5 0 -7 -3 -4 -6 7 -6 73 27 108
55 38 31 20 25 -40 -14z"/>
<path d="M3100 654 c0 -10 5 -26 10 -34 8 -11 9 -7 4 15 -8 37 -14 45 -14 19z"/>
<path d="M3130 580 c6 -11 13 -20 16 -20 2 0 0 9 -6 20 -6 11 -13 20 -16 20
-2 0 0 -9 6 -20z"/>
<path d="M3235 490 c10 -11 20 -20 23 -20 3 0 -3 9 -13 20 -10 11 -20 20 -23
20 -3 0 3 -9 13 -20z"/>
<path d="M3075 980 c3 -5 10 -10 16 -10 5 0 9 5 9 10 0 6 -7 10 -16 10 -8 0
-12 -4 -9 -10z"/>
<path d="M3860 980 c0 -5 5 -10 11 -10 5 0 7 5 4 10 -3 6 -8 10 -11 10 -2 0
-4 -4 -4 -10z"/>
<path d="M4910 966 c0 -16 27 -29 41 -20 15 9 10 27 -6 20 -8 -3 -15 -1 -15 4
0 6 -4 10 -10 10 -5 0 -10 -6 -10 -14z"/>
<path d="M3035 860 c3 -5 8 -10 11 -10 2 0 4 5 4 10 0 6 -5 10 -11 10 -5 0 -7
-4 -4 -10z"/>
<path d="M4810 720 c0 -5 5 -10 10 -10 6 0 10 5 10 10 0 6 -4 10 -10 10 -5 0
-10 -4 -10 -10z"/>
<path d="M4010 700 c0 -5 7 -7 15 -4 8 4 15 8 15 10 0 2 -7 4 -15 4 -8 0 -15
-4 -15 -10z"/>
<path d="M4170 661 c14 -28 13 -39 -9 -51 -15 -7 -24 -5 -43 11 -18 16 -19 19
-5 15 12 -4 17 -2 15 6 -3 7 -15 14 -27 16 -19 3 -22 0 -19 -24 4 -37 52 -59
89 -41 27 14 37 51 19 73 -18 21 -32 17 -20 -5z"/>
<path d="M4375 650 c3 -5 8 -10 11 -10 2 0 4 5 4 10 0 6 -5 10 -11 10 -5 0 -7
-4 -4 -10z"/>
<path d="M2850 640 c0 -5 5 -10 10 -10 6 0 10 5 10 10 0 6 -4 10 -10 10 -5 0
-10 -4 -10 -10z"/>
<path d="M2880 530 c0 -5 5 -10 11 -10 5 0 7 5 4 10 -3 6 -8 10 -11 10 -2 0
-4 -4 -4 -10z"/>
<path d="M2325 481 c-10 -17 12 -21 25 -6 10 12 10 15 -3 15 -9 0 -18 -4 -22
-9z"/>
<path d="M4486 481 c-4 -5 -2 -12 3 -15 5 -4 12 -2 15 3 4 5 2 12 -3 15 -5 4
-12 2 -15 -3z"/>
<path d="M3897 413 c-4 -3 -7 -11 -7 -17 0 -6 5 -5 12 2 6 6 9 14 7 17 -3 3
-9 2 -12 -2z"/>
<path d="M4053 386 c-15 -33 -15 -39 -1 -69 10 -20 29 -39 47 -47 26 -11 35
-10 57 4 20 14 25 24 22 49 -2 25 -7 31 -21 29 -23 -4 -67 24 -67 43 0 30 -21
25 -37 -9z m43 -31 c13 -14 32 -25 44 -25 22 0 27 -19 9 -37 -23 -23 -89 25
-89 64 0 29 7 29 36 -2z"/>
<path d="M2741 396 c-9 -10 -8 -16 4 -26 19 -16 41 1 32 24 -8 20 -21 20 -36
2z m29 -5 c0 -6 -4 -13 -10 -16 -5 -3 -10 1 -10 9 0 9 5 16 10 16 6 0 10 -4
10 -9z"/>
<path d="M3850 320 c0 -5 5 -10 10 -10 6 0 10 5 10 10 0 6 -4 10 -10 10 -5 0
-10 -4 -10 -10z"/>
<path d="M4870 270 c0 -5 5 -10 11 -10 5 0 7 5 4 10 -3 6 -8 10 -11 10 -2 0
-4 -4 -4 -10z"/>
<path d="M4370 230 c0 -5 5 -10 10 -10 6 0 10 5 10 10 0 6 -4 10 -10 10 -5 0
-10 -4 -10 -10z"/>
<path d="M4588 143 c7 -3 16 -2 19 1 4 3 -2 6 -13 5 -11 0 -14 -3 -6 -6z"/>
<path d="M3600 99 c0 -5 5 -7 10 -4 6 3 10 8 10 11 0 2 -4 4 -10 4 -5 0 -10
-5 -10 -11z"/>
</g>
</svg>
